<svg viewBox="0 0 224 15" fill="none" xmlns="http://www.w3.org/2000/svg">
<path d="M 104.672 3.247 L 105.458 3.247 L 105.485 4.45 A 3.008 3.008 0 0 1 105.979 3.833 A 2.527 2.527 0 0 1 106.511 3.445 Q 107.126 3.11 107.878 3.11 Q 109.628 3.11 110.1 4.546 Q 110.496 3.856 111.159 3.483 Q 111.822 3.11 112.622 3.11 A 3.128 3.128 0 0 1 113.609 3.253 Q 115.012 3.719 115.049 5.708 L 115.049 10.644 L 114.229 10.644 L 114.229 5.77 Q 114.224 5.162 114.065 4.747 A 1.468 1.468 0 0 0 113.801 4.3 Q 113.381 3.821 112.431 3.821 A 2.36 2.36 0 0 0 111.617 3.971 A 2.116 2.116 0 0 0 110.94 4.392 A 2.017 2.017 0 0 0 110.264 5.749 L 110.264 10.644 L 109.443 10.644 L 109.443 5.708 Q 109.439 5.102 109.258 4.693 A 1.413 1.413 0 0 0 108.996 4.29 A 1.364 1.364 0 0 0 108.436 3.938 Q 108.215 3.862 107.943 3.836 A 3.131 3.131 0 0 0 107.639 3.821 A 2.262 2.262 0 0 0 106.921 3.932 A 1.965 1.965 0 0 0 106.312 4.262 A 2.184 2.184 0 0 0 105.793 4.872 Q 105.613 5.178 105.492 5.571 L 105.492 10.644 L 104.672 10.644 L 104.672 3.247 Z M 45.623 6.986 L 45.623 6.877 A 6.346 6.346 0 0 1 45.714 5.769 Q 45.822 5.158 46.06 4.669 A 3.25 3.25 0 0 1 46.392 4.126 A 2.442 2.442 0 0 1 48.159 3.126 A 3.181 3.181 0 0 1 48.48 3.11 Q 49.975 3.11 50.76 4.287 A 3.237 3.237 0 0 1 50.777 4.314 L 50.818 3.247 L 51.584 3.247 L 51.584 10.493 A 4.123 4.123 0 0 1 51.481 11.443 A 2.78 2.78 0 0 1 50.784 12.756 Q 49.984 13.59 48.617 13.59 A 3.291 3.291 0 0 1 47.144 13.245 Q 46.443 12.899 46.04 12.325 L 46.498 11.833 Q 47.366 12.899 48.563 12.899 A 2.801 2.801 0 0 0 49.214 12.828 A 1.875 1.875 0 0 0 50.162 12.295 A 2.055 2.055 0 0 0 50.645 11.425 Q 50.748 11.061 50.757 10.616 L 50.757 9.687 A 2.549 2.549 0 0 1 48.887 10.758 A 3.741 3.741 0 0 1 48.467 10.78 Q 47.214 10.78 46.441 9.805 A 3.196 3.196 0 0 1 46.402 9.755 Q 45.733 8.874 45.638 7.462 A 7.152 7.152 0 0 1 45.623 6.986 Z M 6.146 10.644 L 3.739 6.501 L 0.848 6.501 L 0.848 10.644 L 0 10.644 L 0 0.691 L 3.233 0.691 A 5.289 5.289 0 0 1 4.225 0.778 Q 5.127 0.95 5.722 1.463 A 2.523 2.523 0 0 1 6.568 3.006 A 3.704 3.704 0 0 1 6.617 3.623 A 2.699 2.699 0 0 1 6.057 5.312 A 2.84 2.84 0 0 1 4.669 6.287 A 3.498 3.498 0 0 1 4.553 6.323 L 7.041 10.555 L 7.041 10.644 L 6.146 10.644 Z M 53.765 3.247 L 56.062 9.468 L 58.222 3.247 L 59.104 3.247 L 55.945 11.901 L 55.781 12.284 A 2.903 2.903 0 0 1 55.387 12.935 A 1.832 1.832 0 0 1 53.901 13.631 A 2.053 2.053 0 0 1 53.558 13.601 A 2.661 2.661 0 0 1 53.272 13.535 L 53.266 12.858 L 53.689 12.899 Q 54.232 12.899 54.588 12.658 A 1.212 1.212 0 0 0 54.664 12.602 A 1.424 1.424 0 0 0 54.925 12.323 Q 55.133 12.036 55.296 11.58 L 55.658 10.582 L 52.869 3.247 L 53.765 3.247 Z M 14.26 10.644 L 13.385 10.644 A 1.967 1.967 0 0 1 13.318 10.4 Q 13.262 10.138 13.236 9.762 A 8.174 8.174 0 0 1 13.228 9.611 A 2.853 2.853 0 0 1 12.13 10.476 Q 11.464 10.78 10.719 10.78 A 3.116 3.116 0 0 1 9.962 10.693 A 2.229 2.229 0 0 1 8.993 10.186 A 1.924 1.924 0 0 1 8.336 8.794 A 2.428 2.428 0 0 1 8.333 8.682 A 2.076 2.076 0 0 1 8.518 7.796 Q 8.718 7.365 9.135 7.044 A 2.625 2.625 0 0 1 9.232 6.973 A 3.116 3.116 0 0 1 10.135 6.548 Q 10.553 6.424 11.057 6.375 A 7.079 7.079 0 0 1 11.737 6.344 L 13.221 6.344 L 13.221 5.503 Q 13.221 4.71 12.732 4.255 Q 12.243 3.801 11.307 3.801 Q 10.452 3.801 9.892 4.238 A 1.659 1.659 0 0 0 9.567 4.568 A 1.201 1.201 0 0 0 9.331 5.291 L 8.511 5.284 A 1.767 1.767 0 0 1 8.987 4.078 A 2.671 2.671 0 0 1 9.331 3.756 A 2.989 2.989 0 0 1 10.79 3.148 A 3.975 3.975 0 0 1 11.348 3.11 A 4.003 4.003 0 0 1 12.137 3.184 Q 12.614 3.279 12.984 3.501 A 2.228 2.228 0 0 1 13.299 3.729 A 2.075 2.075 0 0 1 13.985 4.955 A 3.014 3.014 0 0 1 14.034 5.455 L 14.034 8.955 Q 14.034 10.028 14.26 10.562 L 14.26 10.644 Z M 81.074 10.644 L 80.199 10.644 A 1.967 1.967 0 0 1 80.132 10.4 Q 80.077 10.138 80.051 9.762 A 8.174 8.174 0 0 1 80.042 9.611 A 2.853 2.853 0 0 1 78.945 10.476 Q 78.278 10.78 77.533 10.78 A 3.116 3.116 0 0 1 76.776 10.693 A 2.229 2.229 0 0 1 75.807 10.186 A 1.924 1.924 0 0 1 75.15 8.794 A 2.428 2.428 0 0 1 75.147 8.682 A 2.076 2.076 0 0 1 75.332 7.796 Q 75.532 7.365 75.949 7.044 A 2.625 2.625 0 0 1 76.046 6.973 A 3.116 3.116 0 0 1 76.95 6.548 Q 77.368 6.424 77.871 6.375 A 7.079 7.079 0 0 1 78.552 6.344 L 80.035 6.344 L 80.035 5.503 Q 80.035 4.71 79.546 4.255 Q 79.058 3.801 78.121 3.801 Q 77.267 3.801 76.706 4.238 A 1.659 1.659 0 0 0 76.381 4.568 A 1.201 1.201 0 0 0 76.146 5.291 L 75.325 5.284 A 1.767 1.767 0 0 1 75.801 4.078 A 2.671 2.671 0 0 1 76.146 3.756 A 2.989 2.989 0 0 1 77.605 3.148 A 3.975 3.975 0 0 1 78.162 3.11 A 4.003 4.003 0 0 1 78.951 3.184 Q 79.428 3.279 79.799 3.501 A 2.228 2.228 0 0 1 80.114 3.729 A 2.075 2.075 0 0 1 80.799 4.955 A 3.014 3.014 0 0 1 80.849 5.455 L 80.849 8.955 Q 80.849 10.028 81.074 10.562 L 81.074 10.644 Z M 15.887 6.973 L 15.887 6.877 A 6.278 6.278 0 0 1 15.978 5.775 Q 16.089 5.153 16.336 4.653 A 3.295 3.295 0 0 1 16.656 4.132 A 2.438 2.438 0 0 1 18.423 3.126 A 3.16 3.16 0 0 1 18.744 3.11 A 3 3 0 0 1 19.765 3.276 Q 20.529 3.551 21.02 4.282 A 3.261 3.261 0 0 1 21.027 4.293 L 21.027 0.144 L 21.841 0.144 L 21.841 10.644 L 21.075 10.644 L 21.041 9.659 A 2.543 2.543 0 0 1 19.189 10.753 A 3.715 3.715 0 0 1 18.73 10.78 Q 17.493 10.78 16.72 9.817 A 3.223 3.223 0 0 1 16.669 9.752 Q 15.997 8.867 15.902 7.451 A 7.176 7.176 0 0 1 15.887 6.973 Z M 88.936 10.644 L 88.115 10.644 L 88.115 3.917 L 86.892 3.917 L 86.892 3.247 L 88.115 3.247 L 88.115 2.352 A 3.572 3.572 0 0 1 88.176 1.671 Q 88.252 1.279 88.424 0.974 A 1.837 1.837 0 0 1 88.693 0.608 A 1.893 1.893 0 0 1 89.674 0.066 A 2.848 2.848 0 0 1 90.303 0 A 3.288 3.288 0 0 1 90.9 0.053 A 2.837 2.837 0 0 1 91.171 0.116 L 91.109 0.8 A 2.952 2.952 0 0 0 90.658 0.729 A 3.645 3.645 0 0 0 90.364 0.718 A 1.748 1.748 0 0 0 89.926 0.77 A 1.21 1.21 0 0 0 89.312 1.138 Q 88.993 1.495 88.944 2.105 A 2.863 2.863 0 0 0 88.936 2.331 L 88.936 3.247 L 90.699 3.247 L 90.699 3.917 L 88.936 3.917 L 88.936 10.644 Z M 67.334 6.59 L 64.805 6.59 L 64.805 10.644 L 63.964 10.644 L 63.964 0.691 L 67.354 0.691 A 4.921 4.921 0 0 1 68.344 0.784 Q 69.215 0.963 69.805 1.483 Q 70.704 2.276 70.704 3.664 A 3.635 3.635 0 0 1 70.602 4.552 A 2.453 2.453 0 0 1 69.839 5.828 Q 68.975 6.59 67.334 6.59 Z M 83.48 1.354 L 84.301 1.354 L 84.301 3.247 L 85.832 3.247 L 85.832 3.917 L 84.301 3.917 L 84.301 8.846 A 2.735 2.735 0 0 0 84.318 9.167 Q 84.36 9.519 84.501 9.73 A 0.785 0.785 0 0 0 84.523 9.762 A 0.688 0.688 0 0 0 84.867 10.005 Q 84.987 10.045 85.135 10.058 A 1.606 1.606 0 0 0 85.265 10.063 A 1.887 1.887 0 0 0 85.383 10.058 Q 85.584 10.045 85.928 9.994 L 85.962 10.664 A 1.623 1.623 0 0 1 85.714 10.73 Q 85.45 10.78 85.087 10.78 Q 84.246 10.78 83.863 10.292 A 1.579 1.579 0 0 1 83.612 9.808 Q 83.48 9.409 83.48 8.853 L 83.48 3.917 L 82.12 3.917 L 82.12 3.247 L 83.48 3.247 L 83.48 1.354 Z M 26.681 7 L 26.681 6.836 A 4.736 4.736 0 0 1 26.812 5.703 A 3.986 3.986 0 0 1 27.094 4.915 Q 27.508 4.061 28.263 3.586 A 3.115 3.115 0 0 1 29.827 3.113 A 3.764 3.764 0 0 1 29.976 3.11 A 3.417 3.417 0 0 1 31.141 3.302 A 2.96 2.96 0 0 1 32.368 4.146 A 3.54 3.54 0 0 1 33.163 5.738 A 5.198 5.198 0 0 1 33.284 6.891 L 33.284 7.062 A 4.787 4.787 0 0 1 33.153 8.201 A 4.009 4.009 0 0 1 32.871 8.993 A 3.252 3.252 0 0 1 32.241 9.892 A 2.958 2.958 0 0 1 31.705 10.316 A 3.13 3.13 0 0 1 30.242 10.772 A 3.832 3.832 0 0 1 29.989 10.78 A 3.389 3.389 0 0 1 28.809 10.582 A 2.978 2.978 0 0 1 27.6 9.745 A 3.539 3.539 0 0 1 26.799 8.141 A 5.191 5.191 0 0 1 26.681 7 Z M 37.659 7 L 37.659 6.836 A 4.736 4.736 0 0 1 37.79 5.703 A 3.986 3.986 0 0 1 38.073 4.915 Q 38.486 4.061 39.242 3.586 A 3.115 3.115 0 0 1 40.806 3.113 A 3.764 3.764 0 0 1 40.954 3.11 A 3.417 3.417 0 0 1 42.12 3.302 A 2.96 2.96 0 0 1 43.347 4.146 A 3.54 3.54 0 0 1 44.142 5.738 A 5.198 5.198 0 0 1 44.263 6.891 L 44.263 7.062 A 4.787 4.787 0 0 1 44.132 8.201 A 4.009 4.009 0 0 1 43.849 8.993 A 3.252 3.252 0 0 1 43.219 9.892 A 2.958 2.958 0 0 1 42.684 10.316 A 3.13 3.13 0 0 1 41.22 10.772 A 3.832 3.832 0 0 1 40.968 10.78 A 3.389 3.389 0 0 1 39.787 10.582 A 2.978 2.978 0 0 1 38.579 9.745 A 3.539 3.539 0 0 1 37.778 8.141 A 5.191 5.191 0 0 1 37.659 7 Z M 91.711 7 L 91.711 6.836 A 4.736 4.736 0 0 1 91.842 5.703 A 3.986 3.986 0 0 1 92.125 4.915 Q 92.538 4.061 93.293 3.586 A 3.115 3.115 0 0 1 94.858 3.113 A 3.764 3.764 0 0 1 95.006 3.11 A 3.417 3.417 0 0 1 96.171 3.302 A 2.96 2.96 0 0 1 97.398 4.146 A 3.54 3.54 0 0 1 98.194 5.738 A 5.198 5.198 0 0 1 98.314 6.891 L 98.314 7.062 A 4.787 4.787 0 0 1 98.184 8.201 A 4.009 4.009 0 0 1 97.901 8.993 A 3.252 3.252 0 0 1 97.271 9.892 A 2.958 2.958 0 0 1 96.735 10.316 A 3.13 3.13 0 0 1 95.272 10.772 A 3.832 3.832 0 0 1 95.02 10.78 A 3.389 3.389 0 0 1 93.839 10.582 A 2.978 2.978 0 0 1 92.63 9.745 A 3.539 3.539 0 0 1 91.83 8.141 A 5.191 5.191 0 0 1 91.711 7 Z M 35.889 0.144 L 35.889 10.644 L 35.068 10.644 L 35.068 0.144 L 35.889 0.144 Z M 73.309 0.144 L 73.309 10.644 L 72.488 10.644 L 72.488 0.144 L 73.309 0.144 Z M 103.441 3.199 L 103.421 3.944 A 2.92 2.92 0 0 0 103.03 3.9 A 3.44 3.44 0 0 0 102.867 3.897 A 2.28 2.28 0 0 0 102.222 3.984 A 1.861 1.861 0 0 0 101.572 4.324 A 2.05 2.05 0 0 0 101.05 4.967 Q 100.912 5.226 100.822 5.544 A 3.583 3.583 0 0 0 100.816 5.565 L 100.816 10.644 L 100.003 10.644 L 100.003 3.247 L 100.803 3.247 L 100.816 4.423 A 2.586 2.586 0 0 1 101.341 3.689 Q 101.872 3.183 102.668 3.119 A 2.938 2.938 0 0 1 102.901 3.11 Q 103.124 3.11 103.285 3.148 A 0.856 0.856 0 0 1 103.441 3.199 Z M 27.501 6.911 L 27.501 7.062 A 4.202 4.202 0 0 0 27.606 8.025 A 2.995 2.995 0 0 0 28.188 9.239 A 2.181 2.181 0 0 0 29.767 10.081 A 2.758 2.758 0 0 0 29.989 10.09 A 2.331 2.331 0 0 0 30.935 9.903 A 2.245 2.245 0 0 0 31.784 9.239 Q 32.434 8.433 32.469 7.139 A 5.491 5.491 0 0 0 32.471 6.993 L 32.471 6.836 A 3.973 3.973 0 0 0 32.342 5.809 A 3.487 3.487 0 0 0 32.156 5.284 Q 31.842 4.58 31.274 4.194 A 2.238 2.238 0 0 0 30.049 3.809 A 2.724 2.724 0 0 0 29.976 3.808 Q 28.884 3.808 28.194 4.662 A 2.688 2.688 0 0 0 28.191 4.666 Q 27.501 5.524 27.501 6.911 Z M 38.479 6.911 L 38.479 7.062 A 4.202 4.202 0 0 0 38.584 8.025 A 2.995 2.995 0 0 0 39.167 9.239 A 2.181 2.181 0 0 0 40.746 10.081 A 2.758 2.758 0 0 0 40.968 10.09 A 2.331 2.331 0 0 0 41.914 9.903 A 2.245 2.245 0 0 0 42.762 9.239 Q 43.413 8.433 43.447 7.139 A 5.491 5.491 0 0 0 43.449 6.993 L 43.449 6.836 A 3.973 3.973 0 0 0 43.32 5.809 A 3.487 3.487 0 0 0 43.135 5.284 Q 42.82 4.58 42.253 4.194 A 2.238 2.238 0 0 0 41.028 3.809 A 2.724 2.724 0 0 0 40.954 3.808 Q 39.862 3.808 39.173 4.662 A 2.688 2.688 0 0 0 39.17 4.666 Q 38.479 5.524 38.479 6.911 Z M 92.531 6.911 L 92.531 7.062 A 4.202 4.202 0 0 0 92.636 8.025 A 2.995 2.995 0 0 0 93.218 9.239 A 2.181 2.181 0 0 0 94.798 10.081 A 2.758 2.758 0 0 0 95.02 10.09 A 2.331 2.331 0 0 0 95.965 9.903 A 2.245 2.245 0 0 0 96.814 9.239 Q 97.465 8.433 97.499 7.139 A 5.491 5.491 0 0 0 97.501 6.993 L 97.501 6.836 A 3.973 3.973 0 0 0 97.372 5.809 A 3.487 3.487 0 0 0 97.187 5.284 Q 96.872 4.58 96.305 4.194 A 2.238 2.238 0 0 0 95.08 3.809 A 2.724 2.724 0 0 0 95.006 3.808 Q 93.914 3.808 93.224 4.662 A 2.688 2.688 0 0 0 93.222 4.666 Q 92.531 5.524 92.531 6.911 Z M 21.027 8.736 L 21.027 5.264 Q 20.428 3.903 19.062 3.826 A 2.962 2.962 0 0 0 18.895 3.821 A 2.097 2.097 0 0 0 18.145 3.95 Q 17.642 4.141 17.299 4.616 A 2.33 2.33 0 0 0 17.288 4.631 A 2.674 2.674 0 0 0 16.93 5.373 Q 16.816 5.731 16.762 6.17 A 7.004 7.004 0 0 0 16.714 7.021 A 5.733 5.733 0 0 0 16.775 7.885 Q 16.9 8.704 17.281 9.253 A 1.8 1.8 0 0 0 18.57 10.049 A 2.359 2.359 0 0 0 18.881 10.069 A 2.652 2.652 0 0 0 19.778 9.926 Q 20.497 9.669 20.914 8.951 A 2.987 2.987 0 0 0 21.027 8.736 Z M 50.757 8.716 L 50.757 5.277 A 2.723 2.723 0 0 0 50.445 4.703 A 2.109 2.109 0 0 0 49.93 4.194 A 2.09 2.09 0 0 0 49.04 3.851 A 2.754 2.754 0 0 0 48.631 3.821 A 2.097 2.097 0 0 0 47.881 3.95 Q 47.378 4.141 47.035 4.616 A 2.33 2.33 0 0 0 47.024 4.631 A 2.674 2.674 0 0 0 46.666 5.373 Q 46.552 5.731 46.498 6.17 A 7.004 7.004 0 0 0 46.45 7.021 A 5.733 5.733 0 0 0 46.511 7.885 Q 46.636 8.704 47.018 9.253 A 1.8 1.8 0 0 0 48.306 10.049 A 2.359 2.359 0 0 0 48.617 10.069 A 2.602 2.602 0 0 0 49.523 9.92 Q 50.219 9.663 50.627 8.965 A 2.999 2.999 0 0 0 50.757 8.716 Z M 64.805 1.408 L 64.805 5.879 L 67.354 5.879 A 4.131 4.131 0 0 0 68.063 5.822 Q 68.452 5.754 68.76 5.606 A 1.941 1.941 0 0 0 69.221 5.298 A 1.901 1.901 0 0 0 69.812 4.226 A 2.814 2.814 0 0 0 69.863 3.678 A 2.699 2.699 0 0 0 69.773 2.963 A 1.988 1.988 0 0 0 69.224 2.034 A 2.112 2.112 0 0 0 68.365 1.543 Q 68.048 1.447 67.669 1.419 A 4.24 4.24 0 0 0 67.409 1.408 L 64.805 1.408 Z M 0.848 1.408 L 0.848 5.783 L 3.425 5.783 A 3.033 3.033 0 0 0 4.161 5.699 A 2.149 2.149 0 0 0 5.127 5.182 A 2 2 0 0 0 5.764 3.799 A 2.709 2.709 0 0 0 5.77 3.623 A 2.652 2.652 0 0 0 5.687 2.941 A 1.862 1.862 0 0 0 5.1 1.989 Q 4.521 1.488 3.541 1.419 A 4.6 4.6 0 0 0 3.22 1.408 L 0.848 1.408 Z M 24.91 3.247 L 24.91 10.644 L 24.09 10.644 L 24.09 3.247 L 24.91 3.247 Z M 13.221 8.6 L 13.221 6.973 L 11.758 6.973 Q 10.534 6.986 9.844 7.42 Q 9.153 7.855 9.153 8.613 A 1.368 1.368 0 0 0 9.284 9.214 A 1.371 1.371 0 0 0 9.615 9.646 A 1.589 1.589 0 0 0 10.38 10.016 A 2.25 2.25 0 0 0 10.814 10.056 Q 11.635 10.056 12.281 9.659 A 2.333 2.333 0 0 0 13.221 8.6 Z M 80.035 8.6 L 80.035 6.973 L 78.572 6.973 Q 77.349 6.986 76.658 7.42 Q 75.968 7.855 75.968 8.613 A 1.368 1.368 0 0 0 76.098 9.214 A 1.371 1.371 0 0 0 76.429 9.646 A 1.589 1.589 0 0 0 77.195 10.016 A 2.25 2.25 0 0 0 77.629 10.056 Q 78.449 10.056 79.095 9.659 A 2.333 2.333 0 0 0 80.035 8.6 Z M 23.985 0.89 A 0.594 0.594 0 0 0 23.946 1.107 A 0.702 0.702 0 0 0 23.947 1.131 A 0.537 0.537 0 0 0 24.097 1.497 A 0.49 0.49 0 0 0 24.334 1.634 A 0.694 0.694 0 0 0 24.507 1.654 A 0.735 0.735 0 0 0 24.637 1.643 A 0.512 0.512 0 0 0 24.92 1.497 A 0.526 0.526 0 0 0 25.037 1.318 A 0.578 0.578 0 0 0 25.074 1.107 A 0.547 0.547 0 0 0 24.92 0.714 Q 24.767 0.554 24.507 0.554 Q 24.247 0.554 24.097 0.714 A 0.545 0.545 0 0 0 23.985 0.89 Z" fill="white"/>
</svg>
